<svg xmlns="http://www.w3.org/2000/svg" version="1.1" xmlns:xlink="http://www.w3.org/1999/xlink" width="512" height="512" x="0" y="0" viewBox="0 0 24 24" style="enable-background:new 0 0 512 512" xml:space="preserve" fill-rule="evenodd" class=""><g><path d="M12 1.25c-3.723 0-6.75 3.054-6.75 6.821 0 1.276.562 2.859 1.38 4.438 1.801 3.477 4.801 6.979 4.801 6.979a.75.75 0 0 0 1.138 0s3-3.502 4.801-6.979c.818-1.579 1.38-3.162 1.38-4.438 0-3.767-3.027-6.821-6.75-6.821zm0 4a2.751 2.751 0 0 0 0 5.5 2.751 2.751 0 0 0 0-5.5z" fill="#334155" opacity="1" data-original="#334155" class=""></path><path d="M16.784 17.377c.813.244 1.483.546 1.946.9.3.228.52.451.52.723 0 .16-.091.305-.219.45-.212.239-.527.454-.917.654-1.378.705-3.606 1.146-6.114 1.146s-4.736-.441-6.114-1.146c-.39-.2-.705-.415-.917-.654-.128-.145-.219-.29-.219-.45 0-.272.22-.495.52-.723.463-.354 1.133-.656 1.946-.9a.75.75 0 0 0-.432-1.437c-1.238.373-2.2.884-2.778 1.449-.508.495-.756 1.049-.756 1.611 0 .702.397 1.402 1.204 1.986C5.87 22.01 8.714 22.75 12 22.75s6.13-.74 7.546-1.764c.807-.584 1.204-1.284 1.204-1.986 0-.562-.248-1.116-.756-1.611-.578-.565-1.54-1.076-2.778-1.449a.75.75 0 0 0-.432 1.437z" fill="#334155" opacity="1" data-original="#334155" class=""></path></g></svg>